
<svg version="1.1" id="Layer_1" xmlns="http://www.w3.org/2000/svg" xmlns:xlink="http://www.w3.org/1999/xlink" x="0px" y="0px"
	 width="100%" viewBox="0 0 200 200" enable-background="new 0 0 200 200" xml:space="preserve">
<path fill="#E11B1B" opacity="1.000000" stroke="none" 
	d="
M87.000000,0.999999 
	C96.020897,1.000000 105.041786,1.000000 114.397766,1.373482 
	C121.401283,4.494759 128.574341,6.420293 134.643417,10.144757 
	C152.739182,21.249746 163.310043,37.757778 166.697281,58.720104 
	C169.812378,77.998375 165.060287,95.886749 156.664551,113.083046 
	C142.206055,142.697220 124.003693,169.984482 104.856430,196.693054 
	C103.966537,197.934372 103.606697,199.555664 103.000000,201.000000 
	C101.933327,201.000000 100.866661,201.000000 99.747696,200.778351 
	C99.311363,199.820038 99.020287,199.014008 98.529808,198.356796 
	C81.948975,176.139236 66.657234,153.069962 53.412743,128.710632 
	C42.596684,108.817696 32.802940,88.704041 34.515785,64.839996 
	C36.359581,39.151485 53.265381,14.101216 77.262886,5.125784 
	C80.561523,3.892043 83.756844,2.382079 87.000000,0.999999 
M81.199196,79.258766 
	C88.211891,87.033043 97.113274,89.301888 107.012001,87.340508 
	C119.976280,84.771698 129.315079,71.029961 126.569916,59.256905 
	C123.241844,44.983952 109.531937,36.419411 95.068810,39.537388 
	C79.530296,42.887203 67.631950,61.910324 81.199196,79.258766 
z"/>
<path fill="#010000" opacity="1.000000" stroke="none" 
	d="
M103.468658,201.000000 
	C103.606697,199.555664 103.966537,197.934372 104.856430,196.693054 
	C124.003693,169.984482 142.206055,142.697220 156.664551,113.083046 
	C165.060287,95.886749 169.812378,77.998375 166.697281,58.720104 
	C163.310043,37.757778 152.739182,21.249746 134.643417,10.144757 
	C128.574341,6.420293 121.401283,4.494759 114.866425,1.373482 
	C143.633972,1.000000 172.267960,1.000000 200.950958,1.000000 
	C200.950958,67.557922 200.950958,134.115891 200.950958,201.000000 
	C168.646500,201.000000 136.291916,201.000000 103.468658,201.000000 
z"/>
<path fill="#010000" opacity="1.000000" stroke="none" 
	d="
M86.531342,0.999999 
	C83.756844,2.382079 80.561523,3.892043 77.262886,5.125784 
	C53.265381,14.101216 36.359581,39.151485 34.515785,64.839996 
	C32.802940,88.704041 42.596684,108.817696 53.412743,128.710632 
	C66.657234,153.069962 81.948975,176.139236 98.529808,198.356796 
	C99.020287,199.014008 99.311363,199.820038 99.347702,200.778351 
	C66.370583,201.000000 33.741158,201.000000 1.055869,201.000000 
	C1.055869,134.446625 1.055869,67.893204 1.055869,1.000000 
	C29.353323,1.000000 57.708004,1.000000 86.531342,0.999999 
z"/>
<path fill="#030000" opacity="1.000000" stroke="none" 
	d="
M80.950378,78.995361 
	C67.631950,61.910324 79.530296,42.887203 95.068810,39.537388 
	C109.531937,36.419411 123.241844,44.983952 126.569916,59.256905 
	C129.315079,71.029961 119.976280,84.771698 107.012001,87.340508 
	C97.113274,89.301888 88.211891,87.033043 80.950378,78.995361 
z"/>
</svg>